<svg width="1673" height="260" viewBox="0 0 1673 260" fill="none" xmlns="http://www.w3.org/2000/svg">
<path d="M302 124.01C302 101.68 312.89 88 328.009 88C334.991 88 340.497 92.0305 343.939 96.4729L339.686 102.092C336.687 98.2676 332.877 95.8551 328.009 95.8551C316.947 95.8551 309.695 106.564 309.695 123.804C309.695 141.28 316.947 152.195 328.009 152.195C333.319 152.195 337.4 149.429 341.013 144.575L345.266 149.988C340.743 156.343 334.991 160.05 327.296 160.05C312.964 160.021 302 146.693 302 124.01Z" fill="white"/>
<path d="M406.7 123.716C406.7 101.268 415.894 88.0293 428.997 88.0293C442.1 88.0293 451.294 101.268 451.294 123.716C451.294 146.487 442.1 160.05 428.997 160.05C415.894 160.05 406.7 146.487 406.7 123.716ZM443.599 123.716C443.599 106.24 437.748 95.8551 428.997 95.8551C420.245 95.8551 414.394 106.24 414.394 123.716C414.394 141.515 420.245 152.195 428.997 152.195C437.748 152.195 443.599 141.486 443.599 123.716Z" fill="white"/>
<path d="M515.013 89.2945H524.035L532.172 118.95L534.999 130.189H535.344L538.097 118.95L546.332 89.2945H555.354V158.755H548.274V124.01C548.274 117.244 549.159 105.387 549.503 99.4444H549.233L545.963 113.007L537.654 140.338H532.344L524.207 113.007L520.839 99.4444H520.667C521.208 105.387 521.897 117.244 521.897 124.01V158.755H514.989V89.2945H515.013Z" fill="white"/>
<path d="M621.213 89.2945H630.235L638.372 118.95L641.199 130.189H641.543L644.296 118.95L652.532 89.2945H661.554V158.755H654.474V124.01C654.474 117.244 655.359 105.387 655.703 99.4444H655.432L652.163 113.007L643.854 140.338H638.544L630.407 113.007L627.039 99.4444H626.867C627.408 105.387 628.096 117.244 628.096 124.01V158.755H621.188V89.2945H621.213Z" fill="white"/>
<path d="M743.342 89.2945H751.848L771.416 158.755H763.451L753.445 120.009C751.405 112.272 749.463 104.652 747.693 96.5906H747.349C745.481 104.652 743.637 112.272 741.596 120.009L731.394 158.755H723.774L743.342 89.2945ZM734.123 130.483H760.747V137.691H734.123V130.483Z" fill="white"/>
<path d="M834.496 89.2945H842.633L861.218 132.925L866.799 147.34H866.971C866.7 140.456 865.987 132.63 865.987 125.305V89.2945H873.067V158.755H864.93L846.345 115.125L840.765 100.709H840.593C840.863 107.8 841.576 115.214 841.576 122.422V158.755H834.496V89.2945Z" fill="white"/>
<path d="M941.138 89.2945H955.47C972.9 89.2945 982.364 101.68 982.364 123.716C982.364 145.84 972.9 158.755 955.814 158.755H941.138V89.2945V89.2945ZM954.929 151.459C968.106 151.459 974.67 141.28 974.67 123.716C974.67 106.24 968.13 96.6201 954.929 96.6201H948.562V151.489H954.929V151.459Z" fill="white"/>
<path d="M1098.47 124.01C1098.47 101.68 1109.36 88 1124.48 88C1131.46 88 1136.97 92.0305 1140.41 96.4729L1136.16 102.092C1133.16 98.2676 1129.35 95.8551 1124.48 95.8551C1113.42 95.8551 1106.17 106.564 1106.17 123.804C1106.17 141.28 1113.42 152.195 1124.48 152.195C1129.79 152.195 1133.87 149.429 1137.48 144.575L1141.74 149.988C1137.21 156.343 1131.46 160.05 1123.77 160.05C1109.46 160.021 1098.47 146.693 1098.47 124.01Z" fill="white"/>
<path d="M1209.02 89.2945H1244.94V96.8261H1216.45V118.538H1240.51V126.07H1216.45V151.283H1245.82V158.755H1209.02V89.2945Z" fill="white"/>
<path d="M1312.37 89.2945H1320.51L1339.09 132.925L1344.67 147.34H1344.84C1344.57 140.456 1343.86 132.63 1343.86 125.305V89.2945H1350.94V158.755H1342.8L1324.22 115.125L1318.64 100.709H1318.47C1318.74 107.8 1319.45 115.214 1319.45 122.422V158.755H1312.37V89.2945Z" fill="white"/>
<path d="M1434.15 96.7966H1414.95V89.2651H1460.8V96.7966H1441.6V158.756H1434.18V96.7966H1434.15Z" fill="white"/>
<path d="M1527.62 89.2945H1563.54V96.8261H1535.04V118.538H1559.11V126.07H1535.04V151.283H1564.42V158.755H1527.62V89.2945Z" fill="white"/>
<path d="M1632.49 89.2945H1650.63C1662.41 89.2945 1670.99 94.3841 1670.99 108.888C1670.99 122.775 1662.41 129.424 1650.63 129.424H1640.01V158.755H1632.49V89.2945ZM1649.55 122.216C1658.57 122.216 1663.54 117.773 1663.54 108.859C1663.54 99.7386 1658.57 96.4729 1649.55 96.4729H1639.99V122.216H1649.55ZM1654.96 122.333L1672.66 158.755H1664.25L1649.11 126.982L1654.96 122.333Z" fill="white"/>
<path d="M255.16 125.78L1.16 258.78V198.78C18.59 205.82 44.29 212.75 68.16 202.78C84.85 195.81 93.96 183.37 102.02 169.79L255.16 125.78Z" fill="#E7E515"/>
<path d="M138.28 123.11C157.5 110.36 191.34 101.93 255.16 125.78L102.02 169.79C109.83 156.63 116.66 142.39 128.44 131.03C131.38 128.19 134.63 125.53 138.28 123.11Z" fill="#E7E515"/>
<path d="M128.44 131.03L127.93 129.88L128.16 129.78C123.89 104.8 114.02 90.47 104.16 81.78C91.3 70.44 77.49 67.82 63.57 64.68L1.16 1.78003L255.16 125.78C191.34 101.93 157.5 110.36 138.28 123.11C134.63 125.53 131.38 128.19 128.44 131.03Z" fill="#4EB748"/>
<path d="M127.93 129.88L128.44 131.03C116.66 142.39 109.83 156.63 102.02 169.79L1.16 198.78V185.78L127.93 129.88Z" fill="#3ABFEF"/>
<path d="M128.16 129.78L63.57 64.6801C77.49 67.8201 91.3 70.4401 104.16 81.7801C114.02 90.4701 123.89 104.8 128.16 129.78Z" fill="#FBAE18"/>
<path d="M1.16 198.78L102.02 169.79C93.96 183.37 84.85 195.81 68.16 202.78C44.29 212.75 18.59 205.82 1.16 198.78Z" fill="#3ABFEF"/>
<path d="M1.16 1.78003L63.57 64.68C51.32 61.9 38.99 58.71 27.16 48.78C11.78 35.87 4.66 17.78 1.16 1.78003Z" fill="#4EB748"/>
<path d="M1.16 70.78V1.78003C4.66 17.78 11.78 35.87 27.16 48.78C38.99 58.71 51.32 61.9 63.57 64.68L128.16 129.78L1.16 70.78Z" fill="#FBAE18"/>
<path d="M1.16 1.78003L255.16 125.78L1.16 258.78V198.78V185.78L127.93 129.88L128.16 129.78L1.16 70.78V1.78003Z" stroke="black" stroke-miterlimit="10"/>
<path d="M1.16 1.78003C4.66 17.78 11.78 35.87 27.16 48.78C38.99 58.71 51.32 61.9 63.57 64.68C77.49 67.82 91.3 70.44 104.16 81.78C114.02 90.47 123.89 104.8 128.16 129.78" stroke="black" stroke-miterlimit="10"/>
<path d="M1.16 198.78C18.59 205.82 44.29 212.75 68.16 202.78C84.85 195.81 93.96 183.37 102.02 169.79C109.83 156.63 116.66 142.39 128.44 131.03C131.38 128.19 134.63 125.53 138.28 123.11C157.5 110.36 191.34 101.93 255.16 125.78" stroke="black" stroke-miterlimit="10"/>
</svg>
